<svg id="_x33_0" enable-background="new 0 0 64 64" height="512" viewBox="0 0 64 64" width="512" xmlns="http://www.w3.org/2000/svg"><g><g><g><path d="m20 30c0-1.1-.9-2-2-2-.55 0-1.05.22-1.41.59-.37.36-.59.86-.59 1.41v2c0-1.1-.9-2-2-2-.55 0-1.05.22-1.41.59-.37.36-.59.86-.59 1.41v6c0 1.1.9 2 2 2v3.39c0 2.36.7 4.65 2 6.61v10.8c-8.16-2.88-14-10.66-14-19.8 0-14 20-39 21-39 .51 0 5.89 6.41 11.07 14.56-.05.47-.07.95-.07 1.44 0 5.36 3.01 10.02 7.44 12.37 1.56 3.83 2.56 7.5 2.56 10.63 0 9.14-5.84 16.92-14 19.8v-10.8l2.47-3.08c.99-1.24 1.53-2.79 1.53-4.38v-7.54c0-1.66-1.34-3-3-3h-3v-12c0-.55-.22-1.05-.59-1.41-.36-.37-.86-.59-1.41-.59-1.1 0-2 .9-2 2v10c0-1.1-.9-2-2-2-.55 0-1.05.22-1.41.59-.37.36-.59.86-.59 1.41z" fill="#69d6f4"/></g><g><path d="m24 30v-10c0-1.1.9-2 2-2 .55 0 1.05.22 1.41.59.37.36.59.86.59 1.41v12h-3c-.55 0-1 .45-1 1z" fill="#f0d0b4"/></g><g><path d="m24 33v5c0 .55-.22 1.05-.59 1.41-.36.37-.86.59-1.41.59-1.1 0-2-.9-2-2v-8c0-.55.22-1.05.59-1.41.36-.37.86-.59 1.41-.59 1.1 0 2 .9 2 2z" fill="#f0d0b4"/></g><g><path d="m20 30v8c0 .55-.22 1.05-.59 1.41-.36.37-.86.59-1.41.59-1.1 0-2-.9-2-2v-6-2c0-.55.22-1.05.59-1.41.36-.37.86-.59 1.41-.59 1.1 0 2 .9 2 2z" fill="#f0d0b4"/></g><g><path d="m16 32v6c0 .55-.22 1.05-.59 1.41-.36.37-.86.59-1.41.59-1.1 0-2-.9-2-2v-6c0-.55.22-1.05.59-1.41.36-.37.86-.59 1.41-.59 1.1 0 2 .9 2 2z" fill="#f0d0b4"/></g><g><path d="m16 50c-1.3-1.96-2-4.25-2-6.61v-3.39c.55 0 1.05-.22 1.41-.59.37-.36.59-.86.59-1.41 0 1.1.9 2 2 2 .55 0 1.05-.22 1.41-.59.37-.36.59-.86.59-1.41 0 1.1.9 2 2 2 .55 0 1.05-.22 1.41-.59.37-.36.59-.86.59-1.41v-5c0-.55.45-1 1-1h3 3c1.66 0 3 1.34 3 3v7.54c0 1.59-.54 3.14-1.53 4.38l-2.47 3.08v10.8c-2.19.78-4.54 1.2-7 1.2s-4.81-.42-7-1.2z" fill="#f0d0b4"/></g><g><path d="m48 4c7.73 0 14 6.27 14 14s-6.27 14-14 14c-2.37 0-4.6-.59-6.56-1.63-4.43-2.35-7.44-7.01-7.44-12.37 0-.49.02-.97.07-1.44.73-7.05 6.69-12.56 13.93-12.56z" fill="#ff826e"/></g><g><path d="m56 17v2c0 .55-.45 1-1 1h-5v5c0 .55-.45 1-1 1h-2c-.55 0-1-.45-1-1v-5h-5c-.55 0-1-.45-1-1v-2c0-.55.45-1 1-1h5v-5c0-.55.45-1 1-1h2c.55 0 1 .45 1 1v5h5c.55 0 1 .45 1 1z" fill="#e6e9ed"/></g></g><g><path d="m17.316 43.052-.633 1.896c1.581.527 2.841 1.787 3.368 3.368l1.896-.633c-.723-2.174-2.456-3.907-4.631-4.631z"/><path d="m55 15h-4v-4c0-1.103-.897-2-2-2h-2c-1.103 0-2 .897-2 2v4h-4c-1.103 0-2 .897-2 2v2c0 1.103.897 2 2 2h4v4c0 1.103.897 2 2 2h2c1.103 0 2-.897 2-2v-4h4c1.103 0 2-.897 2-2v-2c0-1.103-.897-2-2-2zm0 4h-6v6h-2v-6h-6v-2h6v-6h2v6l6 .003z"/><path d="m48 3c-6.872 0-12.665 4.65-14.433 10.965-3.312-4.94-9.137-12.965-10.567-12.965-1.744 0-9.639 11.466-11.717 14.71-4.691 7.323-10.283 17.654-10.283 25.29 0 12.131 9.869 22 22 22s22-9.869 22-22c0-2.49-.61-5.447-1.799-8.801 1.509.511 3.119.801 4.799.801 8.271 0 15-6.729 15-15s-6.729-15-15-15zm-31 57.078v-10.38l-.168-.252c-1.198-1.799-1.832-3.891-1.832-6.051v-2.579c.374-.133.711-.335 1-.596.532.48 1.229.78 2 .78s1.468-.301 2-.78c.532.48 1.229.78 2 .78 1.654 0 3-1.346 3-3v-1.196c.515.362 1.099.635 1.745.765l.653.131c-.987 1.757-1.688 3.648-2.086 5.64l-.293 1.465 1.961.393.293-1.465c.443-2.217 1.305-4.295 2.559-6.177l.828-1.242-3.522-.705c-1.24-.25-2.138-1.345-2.138-2.609h6c1.103 0 2 .897 2 2v7.545c0 1.356-.467 2.688-1.315 3.747l-2.685 3.357v10.428c-1.895.598-3.91.923-6 .923s-4.105-.325-6-.922zm10-29.078h-2v-11c0-.551.448-1 1-1s1 .449 1 1zm-4 7c0 .552-.448 1-1 1s-1-.448-1-1v-8c0-.551.448-1 1-1s1 .449 1 1zm-4 0c0 .552-.448 1-1 1s-1-.448-1-1v-8c0-.551.448-1 1-1s1 .449 1 1zm-4 0c0 .552-.448 1-1 1s-1-.448-1-1v-6c0-.551.448-1 1-1s1 .449 1 1zm28 3c0 8.184-4.945 15.225-12 18.319v-8.968l2.247-2.809c1.13-1.413 1.753-3.188 1.753-4.997v-7.545c0-2.206-1.794-4-4-4h-2v-11c0-1.654-1.346-3-3-3s-3 1.346-3 3v7.171c-.312-.11-.649-.171-1-.171-.771 0-1.468.301-2 .78-.532-.48-1.229-.78-2-.78-1.383 0-2.538.945-2.884 2.22-.346-.139-.721-.22-1.116-.22-1.654 0-3 1.346-3 3v6c0 1.302.839 2.402 2 2.816v2.579c0 2.453.69 4.833 2 6.901v9.023c-7.055-3.094-12-10.135-12-18.319 0-12.666 16.771-34.365 20-37.712 1.446 1.498 5.698 6.73 10.059 13.545-.03.387-.059.773-.059 1.167 0 5.593 3.082 10.472 7.633 13.051 1.567 3.907 2.367 7.256 2.367 9.949zm5-10c-7.168 0-13-5.832-13-13s5.832-13 13-13 13 5.832 13 13-5.832 13-13 13z"/></g></g></svg>