<?xml version="1.0"?>
<svg xmlns="http://www.w3.org/2000/svg" xmlns:xlink="http://www.w3.org/1999/xlink" id="Gradient" viewBox="0 0 512 512" width="512" height="512"><defs><linearGradient id="linear-gradient" x1="256" y1="496" x2="256" y2="16" gradientUnits="userSpaceOnUse"><stop offset="0" stop-color="#12c2e9"/><stop offset="0.5" stop-color="#c471ed"/><stop offset="1" stop-color="#f64f59"/></linearGradient></defs><path d="M370.7,16h0c-33.7,0-65.319,15.222-89.017,42.858L256,88.807,230.318,58.858C206.619,31.221,175.005,16,141.3,16S75.983,31.221,52.284,58.858C28.886,86.143,16,122.344,16,160.791s12.886,74.648,36.284,101.934L249.927,493.208a8,8,0,0,0,12.145,0L459.716,262.724C483.113,235.439,496,199.238,496,160.791S483.113,86.143,459.716,58.858C436.017,31.221,404.4,16,370.7,16Zm76.87,236.309L256,475.71,64.429,252.31c-43.273-50.464-43.273-132.574,0-183.037C85.041,45.237,112.341,32,141.3,32s56.26,13.237,76.871,37.273L249.927,106.3a8,8,0,0,0,12.145,0l31.755-37.031C314.438,45.237,341.739,32,370.7,32s56.26,13.237,76.87,37.273C490.844,119.736,490.844,201.846,447.569,252.309ZM328,216H288V176a8,8,0,0,0-8-8H232a8,8,0,0,0-8,8v40H184a8,8,0,0,0-8,8v48a8,8,0,0,0,8,8h40v40a8,8,0,0,0,8,8h48a8,8,0,0,0,8-8V280h40a8,8,0,0,0,8-8V224A8,8,0,0,0,328,216Zm-8,48H280a8,8,0,0,0-8,8v40H240V272a8,8,0,0,0-8-8H192V232h40a8,8,0,0,0,8-8V184h32v40a8,8,0,0,0,8,8h40ZM464,160a8,8,0,0,1-16,0c0-52.935-35.888-96-80-96a8,8,0,0,1,0-16C420.935,48,464,98.243,464,160Z" style="fill:url(#linear-gradient)"/></svg>
