<svg id="Filled" height="512" viewBox="0 0 512 512" width="512" xmlns="http://www.w3.org/2000/svg"><path d="m453.643 64.065c-45.809-53.42-120.08-53.42-165.889 0l-31.754 37.035-31.755-37.035c-45.809-53.42-120.079-53.42-165.889 0s-45.808 140.032 0 193.452l33.422 38.975 164.222 191.508 164.221-191.508 33.422-38.975c45.809-53.417 45.809-140.032 0-193.452z" fill="#eb423f"/><path d="m232 320v-48h-48v-48h48v-48h48v48h48v48h-48v48z" fill="#e9eef2"/><path d="m456 168a8 8 0 0 1 -8-8c0-52.935-35.888-96-80-96a8 8 0 0 1 0-16c52.935 0 96 50.243 96 112a8 8 0 0 1 -8 8z" fill="#ed6f6d"/><path d="m370.7 16c-33.7 0-65.319 15.222-89.017 42.858l-25.683 29.949-25.682-29.949c-23.699-27.637-55.313-42.858-89.018-42.858s-65.317 15.221-89.016 42.858c-23.398 27.285-36.284 63.486-36.284 101.933s12.886 74.648 36.284 101.934l197.643 230.483a8 8 0 0 0 12.145 0l197.644-230.484c23.397-27.285 36.284-63.486 36.284-101.933s-12.887-74.648-36.284-101.933c-23.699-27.637-55.316-42.858-89.016-42.858zm76.87 236.309-191.57 223.401-191.571-223.4c-43.273-50.464-43.273-132.574 0-183.037 20.612-24.036 47.912-37.273 76.871-37.273s56.26 13.237 76.871 37.273l31.756 37.027a8 8 0 0 0 12.145 0l31.755-37.031c20.611-24.032 47.912-37.269 76.873-37.269s56.26 13.237 76.87 37.273c43.274 50.463 43.274 132.573-.001 183.036z"/><path d="m328 216h-40v-40a8 8 0 0 0 -8-8h-48a8 8 0 0 0 -8 8v40h-40a8 8 0 0 0 -8 8v48a8 8 0 0 0 8 8h40v40a8 8 0 0 0 8 8h48a8 8 0 0 0 8-8v-40h40a8 8 0 0 0 8-8v-48a8 8 0 0 0 -8-8zm-8 48h-40a8 8 0 0 0 -8 8v40h-32v-40a8 8 0 0 0 -8-8h-40v-32h40a8 8 0 0 0 8-8v-40h32v40a8 8 0 0 0 8 8h40z"/><path d="m368 48a8 8 0 0 0 0 16c44.112 0 80 43.065 80 96a8 8 0 0 0 16 0c0-61.757-43.065-112-96-112z"/></svg>