<svg id="_x33_0" enable-background="new 0 0 64 64" height="512" viewBox="0 0 64 64" width="512" xmlns="http://www.w3.org/2000/svg" xmlns:xlink="http://www.w3.org/1999/xlink"><linearGradient id="SVGID_1_" gradientUnits="userSpaceOnUse" x1="32" x2="32" y1="63" y2="1"><stop offset="0" stop-color="#9f2fff"/><stop offset="1" stop-color="#0bb1d3"/></linearGradient><path d="m21.948 47.684-1.896.633c-.527-1.581-1.787-2.841-3.368-3.368l.633-1.896c2.174.723 3.907 2.456 4.631 4.631zm35.052-30.684v2c0 1.103-.897 2-2 2h-4v4c0 1.103-.897 2-2 2h-2c-1.103 0-2-.897-2-2v-4h-4c-1.103 0-2-.897-2-2v-2c0-1.103.897-2 2-2h4v-4c0-1.103.897-2 2-2h2c1.103 0 2 .897 2 2v4h4c1.103 0 2 .897 2 2zm-2 .003-6-.003v-6h-2v6h-6v2h6v6h2v-6h6zm8 .997c0 8.271-6.729 15-15 15-1.68 0-3.29-.29-4.799-.801 1.189 3.354 1.799 6.311 1.799 8.801 0 12.131-9.869 22-22 22s-22-9.869-22-22c0-7.636 5.592-17.967 10.283-25.29 2.078-3.244 9.973-14.71 11.717-14.71 1.43 0 7.255 8.025 10.567 12.965 1.768-6.315 7.561-10.965 14.433-10.965 8.271 0 15 6.729 15 15zm-40 43c2.09 0 4.105-.325 6-.922v-10.429l2.685-3.357c.848-1.06 1.315-2.391 1.315-3.747v-7.545c0-1.103-.897-2-2-2h-6c0 1.264.898 2.359 2.138 2.607l3.522.705-.828 1.242c-1.254 1.882-2.115 3.96-2.559 6.177l-.293 1.465-1.961-.393.293-1.465c.398-1.991 1.099-3.883 2.086-5.64l-.653-.131c-.646-.129-1.23-.403-1.745-.765v1.198c0 1.654-1.346 3-3 3-.771 0-1.468-.301-2-.78-.532.48-1.229.78-2 .78s-1.468-.301-2-.78c-.289.261-.626.463-1 .596v2.579c0 2.16.634 4.253 1.832 6.051l.168.251v10.38c1.895.598 3.91.923 6 .923zm4-41c0-.551-.448-1-1-1s-1 .449-1 1v11h2zm-4 10c0-.551-.448-1-1-1s-1 .449-1 1v8c0 .552.448 1 1 1s1-.448 1-1zm-4 0c0-.551-.448-1-1-1s-1 .449-1 1v8c0 .552.448 1 1 1s1-.448 1-1zm-4 2c0-.551-.448-1-1-1s-1 .449-1 1v6c0 .552.448 1 1 1s1-.448 1-1zm25.633-.949c-4.551-2.579-7.633-7.458-7.633-13.051 0-.394.029-.78.059-1.167-4.361-6.815-8.613-12.047-10.059-13.545-3.229 3.347-20 25.046-20 37.712 0 8.184 4.945 15.225 12 18.319v-9.023c-1.31-2.068-2-4.448-2-6.901v-2.579c-1.161-.414-2-1.514-2-2.816v-6c0-1.654 1.346-3 3-3 .395 0 .77.081 1.116.22.346-1.275 1.501-2.22 2.884-2.22.771 0 1.468.301 2 .78.532-.48 1.229-.78 2-.78.351 0 .687.061 1 .171v-7.171c0-1.654 1.346-3 3-3s3 1.346 3 3v11h2c2.206 0 4 1.794 4 4v7.545c0 1.81-.623 3.584-1.753 4.997l-2.247 2.809v8.968c7.055-3.094 12-10.135 12-18.319 0-2.693-.8-6.042-2.367-9.949zm20.367-13.051c0-7.168-5.832-13-13-13s-13 5.832-13 13 5.832 13 13 13 13-5.832 13-13z" fill="url(#SVGID_1_)"/></svg>