<svg id="_x33_0" enable-background="new 0 0 64 64" height="512" viewBox="0 0 64 64" width="512" xmlns="http://www.w3.org/2000/svg"><g><g><g><path d="m27.74 10h-11.74c-2.21 0-4 1.79-4 4v2h-1c-.92 0-1.74.41-2.29 1.06-.47-1.7-.71-3.46-.71-5.22 0-2.72 1.1-5.18 2.88-6.96s4.24-2.88 6.96-2.88h4.32c5.44 0 9.84 4.4 9.84 9.84 0 1.76-.24 3.52-.71 5.22-.55-.65-1.37-1.06-2.29-1.06h-1v-4.17c0-.62-.09-1.24-.26-1.83z" fill="#656d78"/></g><g><path d="m28 56c0 1.1.9 2 2 2h-1c-.55 0-1 .45-1 1v1h-18v-10h-8v-.68c0-8.35 5.83-15.57 14-17.32.61 1.23 1.87 2 3.24 2h1.52c1.37 0 2.63-.77 3.24-2 1.41.3 2.75.77 4 1.37v5.68c-.85-.68-1.91-1.05-3-1.05-1.28 0-2.51.51-3.41 1.41-1.02 1.02-1.59 2.4-1.59 3.83v.16c0 1.65.71 3.23 1.94 4.33l6.06 5.38z" fill="#fcd770"/></g><g><path d="m2 50h8v10h-8z" fill="#f0d0b4"/></g><g><path d="m31.29 17.06c.44.52.71 1.2.71 1.94 0 .83-.34 1.58-.88 2.12s-1.29.88-2.12.88h-1v-6h1c.92 0 1.74.41 2.29 1.06z" fill="#f0d0b4"/></g><g><path d="m23.18 27.88.82 4.12c-.61 1.23-1.87 2-3.24 2h-1.52c-1.37 0-2.63-.77-3.24-2l.82-4.12c.38.08.78.12 1.18.12h4c.4 0 .8-.04 1.18-.12z" fill="#f0d0b4"/></g><g><path d="m28 16v6c0 2.91-2.07 5.34-4.82 5.88-.38.08-.78.12-1.18.12h-4c-.4 0-.8-.04-1.18-.12-2.75-.54-4.82-2.97-4.82-5.88v-6-2c0-2.21 1.79-4 4-4h11.74c.17.59.26 1.21.26 1.83z" fill="#f0d0b4"/></g><g><path d="m12 16v6h-1c-.83 0-1.58-.34-2.12-.88s-.88-1.29-.88-2.12c0-.74.27-1.42.71-1.94.55-.65 1.37-1.06 2.29-1.06z" fill="#f0d0b4"/></g><g><path d="m48 58v4h-19c-.55 0-1-.45-1-1v-1-1c0-.55.45-1 1-1h1z" fill="#aab2bd"/></g><g><path d="m60 30h-30c-1.1 0-2 .9-2 2v1.37 22.63c0 1.1.9 2 2 2h18 4 4 4c1.1 0 2-.9 2-2v-24c0-1.1-.9-2-2-2z" fill="#ccd1d9"/></g><g><path d="m62 59v2c0 .55-.45 1-1 1h-5v-4h4 1c.55 0 1 .45 1 1z" fill="#aab2bd"/></g><g><path d="m52 58h4v4h-4z" fill="#ff826e"/></g><g><path d="m48 58h4v4h-4z" fill="#ff826e"/></g><g><path d="m57 34h-24c-.55 0-1 .45-1 1v3.1c.33-.06.66-.1 1-.1 1.28 0 2.51.51 3.41 1.41 1.02 1.02 1.59 2.4 1.59 3.83v.16c0 .2-.01.4-.03.6-.15 1.43-.83 2.77-1.91 3.73l-4.06 3.6v.01 1.66c0 .55.45 1 1 1h24c.55 0 1-.45 1-1v-9-9c0-.55-.45-1-1-1z" fill="#69d6f4"/></g><g><path d="m38 43.24v.16c0 .2-.01.4-.03.6-.15 1.43-.83 2.77-1.91 3.73l-4.06 3.6v.01l-3 2.66-1-.89-6.06-5.38c-1.23-1.1-1.94-2.68-1.94-4.33v-.16c0-1.43.57-2.81 1.59-3.83.9-.9 2.13-1.41 3.41-1.41 1.09 0 2.15.37 3 1.05.14.11.28.23.41.36l.59.59.59-.59c.66-.66 1.5-1.11 2.41-1.31.33-.06.66-.1 1-.1 1.28 0 2.51.51 3.41 1.41 1.02 1.02 1.59 2.4 1.59 3.83z" fill="#ff826e"/></g></g><g><circle cx="16" cy="16" r="1"/><circle cx="24" cy="16" r="1"/><path d="m19 13h2v-1.172c0-2.092-.814-4.058-2.293-5.535l-1.414 1.414c1.101 1.101 1.707 2.564 1.707 4.121z"/><path d="m23 13h2v-1.172c0-2.092-.814-4.058-2.293-5.535l-1.414 1.414c1.101 1.101 1.707 2.564 1.707 4.121z"/><path d="m25 21h-2c0 1.103-.897 2-2 2h-4v2h4c2.206 0 4-1.794 4-4z"/><path d="m63 32c0-1.654-1.346-3-3-3h-30c-1.608 0-2.914 1.274-2.986 2.864-.704-.271-1.425-.499-2.158-.683l-.518-2.591c2.408-.857 4.208-2.993 4.583-5.59h.079c2.206 0 4-1.794 4-4 0-.791-.238-1.524-.635-2.145.415-1.641.635-3.324.635-5.017 0-5.976-4.862-10.838-10.838-10.838h-4.324c-5.976 0-10.838 4.862-10.838 10.838 0 1.693.22 3.376.635 5.017-.397.621-.635 1.354-.635 2.145 0 2.206 1.794 4 4 4h.08c.374 2.597 2.174 4.733 4.583 5.59l-.52 2.602c-8.231 2.079-14.143 9.586-14.143 18.125v11.683h26c0 1.103.897 2 2 2h32c1.103 0 2-.897 2-2v-2c0-.51-.198-.971-.513-1.324.324-.479.513-1.056.513-1.676zm-34 0c0-.552.449-1 1-1h30c.551 0 1 .448 1 1v24c0 .552-.449 1-1 1h-30c-.551 0-1-.448-1-1v-.662l2.07-1.84c.223.861 1 1.502 1.93 1.502h24c1.103 0 2-.897 2-2v-18c0-1.103-.897-2-2-2h-24c-1.103 0-2 .897-2 2v2.365c-.735.268-1.417.674-2 1.224zm22 27v2h-2v-2zm2 0h2v2h-2zm-25.293-18.879 1.293 1.293 1.293-1.293c1.446-1.445 3.968-1.445 5.414 0 .834.834 1.293 1.942 1.293 3.121v.157c0 1.367-.586 2.673-1.608 3.581l-6.392 5.682-6.392-5.682c-1.022-.908-1.608-2.213-1.608-3.581v-.157c0-1.179.459-2.287 1.293-3.121.723-.723 1.685-1.121 2.707-1.121s1.984.398 2.707 1.121zm5.293 11.661 3.72-3.307c1.042-.925 1.757-2.144 2.081-3.475h2.522l2.763 6.906 3.031-9.095 2.691 6.279 2.727-4.09h4.465v8h-24zm24-8.782h-5.535l-1.273 1.909-3.309-7.721-2.968 8.905-1.238-3.093h-3.689c-.06-1.622-.713-3.139-1.867-4.293-1.1-1.101-2.564-1.707-4.121-1.707v-2h24zm-28-22v-4c1.103 0 2 .897 2 2s-.897 2-2 2zm-20-2c0-1.103.897-2 2-2v4c-1.103 0-2-.897-2-2zm4 3v-8c0-1.654 1.346-3 3-3h1v-2h-1c-2.757 0-5 2.243-5 5v1c-.591 0-1.148.137-1.654.368-.226-1.163-.346-2.345-.346-3.53 0-4.873 3.965-8.838 8.838-8.838h4.324c4.873 0 8.838 3.965 8.838 8.838 0 1.186-.12 2.367-.346 3.53-.506-.231-1.063-.368-1.654-.368v-3.172c0-2.092-.814-4.058-2.293-5.535l-1.414 1.414c1.101 1.101 1.707 2.564 1.707 4.121v10.172c0 2.757-2.243 5-5 5h-4c-2.757 0-5-2.243-5-5zm5 7h4c.127 0 .251-.012.376-.019l.57 2.848c-.481.73-1.291 1.171-2.182 1.171h-1.528c-.891 0-1.701-.441-2.182-1.171l.57-2.848c.125.007.249.019.376.019zm-15 22h6v8h-6zm8 8v-16h-2v6h-5.986c.144-7.466 5.33-13.99 12.535-15.85.862 1.154 2.208 1.85 3.687 1.85h1.528c1.482 0 2.832-.7 3.693-1.858.871.224 1.721.518 2.542.878v3.345c-.633-.232-1.304-.365-1.999-.365-1.557 0-3.021.606-4.121 1.707-1.212 1.212-1.879 2.822-1.879 4.535v.157c0 1.938.831 3.788 2.279 5.075l5.721 5.086v2.44c0 .62.189 1.197.513 1.676-.315.353-.513.814-.513 1.324zm18 0h18v2h-18zm28 2v-2h4l.001 2z"/></g></g></svg>