<svg height="512pt" viewBox="-29 0 512 512" width="512pt" xmlns="http://www.w3.org/2000/svg"><path d="m278.015625 504.5h-101.800781l-39.515625-38.914062c.9375-2.847657 1.980469-5.652344 3.132812-8.421876 13.113281-31.515624 35.464844-47.335937 35.464844-47.335937h103.636719s22.351562 15.820313 35.464844 47.335937c1.152343 2.769532 2.195312 5.574219 3.132812 8.421876zm0 0" fill="#e8e8e8"/><path d="m176.214844 465.585938v38.914062h-45.683594c0-13.179688 2.050781-26.390625 6.167969-38.914062zm0 0" fill="#f5cdb6"/><path d="m323.699219 504.5h-45.683594v-38.914062h39.515625c4.117188 12.523437 6.167969 25.734374 6.167969 38.914062zm0 0" fill="#f5cdb6"/><path d="m268.222656 403.625s-2.90625 36.449219-41.105468 49.933594c-38.203126-13.484375-41.105469-49.933594-41.105469-49.933594zm0 0" fill="#e2b3a3"/><path d="m20.945312 240.929688c0-54.339844 21.503907-105.40625 60.546876-143.789063 38.921874-38.261719 90.640624-59.332031 145.621093-59.332031 54.984375 0 106.703125 21.070312 145.625 59.332031 39.042969 38.378906 60.546875 89.445313 60.546875 143.789063zm0 0" fill="#ea8187"/><path d="m242.113281 38.335938c-4.964843-.347657-9.96875-.527344-15-.527344-54.980469 0-106.699219 21.070312-145.621093 59.332031-39.042969 38.378906-60.546876 89.445313-60.546876 143.789063h30c0-54.34375 21.503907-105.410157 60.546876-143.792969 35.363281-34.757813 81.285156-55.324219 130.621093-58.800781zm0 0" fill="#d3737b"/><path d="m27.457031 300.769531s-.824219 13.21875-11.078125 36.667969c-1.882812 4.308594-.898437 9.332031 2.472656 12.609375 12.695313 12.339844 47.917969 39.550781 111.683594 39.550781l-54.832031-105.117187zm0 0" fill="#ea8187"/><path d="m57.457031 300.769531 22.738281-7.679687-4.488281-8.609375-48.25 16.285156s-.824219 13.222656-11.078125 36.671875c-1.882812 4.304688-.898437 9.332031 2.472656 12.605469 3.96875 3.859375 10.136719 9.167969 18.695313 14.648437 9.890625-23.914062 19.910156-63.921875 19.910156-63.921875zm0 0" fill="#d3737b"/><path d="m426.773438 300.769531s.824218 13.21875 11.078124 36.667969c1.882813 4.308594.898438 9.332031-2.46875 12.609375-12.699218 12.339844-47.921874 39.550781-111.6875 39.550781l54.832032-105.117187zm0 0" fill="#ea8187"/><path d="m446.730469 268.566406c0 19.859375-16.097657 35.960938-35.957031 35.960938-19.859376 0-35.960938-16.101563-35.960938-35.960938s16.101562-35.957031 35.960938-35.957031c19.859374 0 35.957031 16.097656 35.957031 35.957031zm0 0" fill="#e2b3a3"/><path d="m404.898438 217.019531c-1.175782-8.492187-8.472657-14.792969-17.042969-14.792969h-321.480469c-8.570312 0-15.867188 6.300782-17.042969 14.792969-1.078125 7.816407-1.640625 15.800781-1.640625 23.910157 0 97.410156 80.332032 176.375 179.421875 176.375 99.09375 0 179.425781-78.964844 179.425781-176.375 0-8.109376-.558593-16.09375-1.640624-23.910157zm0 0" fill="#f5cdb6"/><path d="m77.691406 240.929688c0-8.113282.5625-16.09375 1.640625-23.914063 1.175781-8.488281 8.472657-14.789063 17.042969-14.789063h-30c-8.570312 0-15.867188 6.300782-17.042969 14.789063-.722656 5.222656-1.1875 10.519531-1.433593 15.875-1.457032-.179687-2.933594-.285156-4.441407-.285156-19.859375 0-35.957031 16.101562-35.957031 35.960937s16.097656 35.957032 35.957031 35.957032c5.359375 0 10.4375-1.179688 15.003907-3.277344 25.0625 67.703125 91.113281 116.058594 168.652343 116.058594 5.054688 0 10.054688-.214844 15-.617188-92.070312-7.492188-164.421875-83.316406-164.421875-175.757812zm0 0" fill="#e2b3a3"/><path d="m323.699219 299.667969h-22.589844c-4.140625 0-7.5-3.359375-7.5-7.5 0-4.144531 3.359375-7.5 7.5-7.5h22.589844c4.140625 0 7.5 3.355469 7.5 7.5 0 4.140625-3.359375 7.5-7.5 7.5zm0 0" fill="#e98e8f"/><path d="m153.117188 299.667969h-22.585938c-4.140625 0-7.5-3.359375-7.5-7.5 0-4.144531 3.359375-7.5 7.5-7.5h22.585938c4.144531 0 7.5 3.355469 7.5 7.5 0 4.140625-3.355469 7.5-7.5 7.5zm0 0" fill="#e98e8f"/><path d="m340.714844 56.15625c-12.78125-16.601562-46.191406-48.65625-113.601563-48.65625-67.480469 0-100.871093 31.980469-113.617187 48.488281-5.679688 7.363281-7.195313 17.125-3.988282 25.855469 2.207032 6.019531 5.9375 12.761719 11.546876 20.199219 3.882812 5.152343 10.957031 6.722656 16.597656 3.597656 13.539062-7.503906 42.773437-19.738281 89.464844-19.738281 46.6875 0 75.921874 12.234375 89.460937 19.738281 5.640625 3.125 12.710937 1.558594 16.59375-3.589844 5.617187-7.449219 9.351563-14.199219 11.5625-20.226562 3.171875-8.664063 1.613281-18.355469-4.019531-25.667969zm0 0" fill="#e8e8e8"/><path d="m139.507812 81.84375c-3.207031-8.730469-1.691406-18.492188 3.988282-25.855469 11.761718-15.234375 41.125-43.617187 98.601562-47.917969-4.800781-.359374-9.78125-.570312-14.984375-.570312-67.480469 0-100.871093 31.980469-113.617187 48.488281-5.679688 7.363281-7.195313 17.125-3.988282 25.855469 2.207032 6.019531 5.9375 12.761719 11.546876 20.199219 3.882812 5.152343 10.957031 6.722656 16.597656 3.597656 3.113281-1.726563 7.0625-3.699219 11.851562-5.714844-4.746094-6.601562-8-12.640625-9.996094-18.082031zm0 0" fill="#d6d6d6"/><path d="m250.265625 34.941406h-12.171875v-12.171875h-21.957031v12.171875h-12.171875v21.957032h12.171875v12.171874h21.957031v-12.171874h12.171875zm0 0" fill="#e16668"/><path d="m312.40625 275.292969c4.140625 0 7.5-3.359375 7.5-7.5v-16.582031c0-4.144532-3.359375-7.5-7.5-7.5-4.144531 0-7.5 3.355468-7.5 7.5v16.582031c0 4.140625 3.355469 7.5 7.5 7.5zm0 0"/><path d="m141.824219 275.292969c4.144531 0 7.5-3.359375 7.5-7.5v-16.582031c0-4.144532-3.355469-7.5-7.5-7.5-4.140625 0-7.5 3.355468-7.5 7.5v16.582031c0 4.140625 3.359375 7.5 7.5 7.5zm0 0"/><path d="m227.113281 298.730469c8.113281 0 15.730469-3.394531 20.902344-9.3125 2.726563-3.121094 2.410156-7.859375-.710937-10.582031-3.117188-2.726563-7.855469-2.410157-10.582032.710937-2.324218 2.65625-5.828125 4.183594-9.609375 4.183594-3.777343 0-7.28125-1.523438-9.605469-4.183594-2.726562-3.121094-7.464843-3.4375-10.582031-.710937-3.121093 2.722656-3.4375 7.460937-.710937 10.582031 5.171875 5.917969 12.789062 9.3125 20.898437 9.3125zm0 0"/><path d="m28.902344 227.625c2.097656-30.601562 11.398437-60.238281 27.207031-86.417969 2.140625-3.546875 1.003906-8.15625-2.542969-10.296875s-8.15625-1.003906-10.296875 2.542969c-18.859375 31.222656-29.125 67.007813-29.785156 103.691406-8.296875 7.917969-13.484375 19.074219-13.484375 31.421875 0 15.03125 7.671875 28.300782 19.304688 36.109375-1.035157 5.382813-3.597657 15.585938-9.796876 29.757813-3.117187 7.132812-1.464843 15.566406 4.113282 20.992187 12.761718 12.398438 49.351562 41.054688 114.886718 41.644531 10.101563 6.195313 20.84375 11.46875 32.105469 15.699219-8.210937 8.21875-19.597656 22.03125-27.703125 41.511719-6.539062 15.71875-9.875 33.058594-9.875 50.21875 0 4.140625 3.355469 7.5 7.5 7.5h193.183594c4.140625 0 7.5-3.359375 7.5-7.5 0-17.175781-3.292969-34.347656-9.894531-50.214844-8.105469-19.484375-19.496094-33.296875-27.707031-41.515625 11.257812-4.230469 21.996093-9.5 32.09375-15.691406 23.429687-.207031 45.332031-4 65.125-11.308594 3.886718-1.433593 5.875-5.746093 4.4375-9.632812-1.433594-3.882813-5.746094-5.871094-9.632813-4.4375-11.539063 4.257812-23.894531 7.222656-36.933594 8.867187 22.402344-18.9375 40.160157-42.996094 51.390625-69.863281 6.769532 1.714844 14.011719 1.765625 20.804688.140625 1.519531 6.699219 4.453125 16.738281 10.078125 29.601562.628906 1.4375.296875 3.132813-.824219 4.222657-3.714844 3.609375-10.058594 9.101562-19.171875 14.746093-3.523437 2.179688-4.609375 6.804688-2.429687 10.324219 2.179687 3.519531 6.800781 4.605469 10.324218 2.425781 10.261719-6.351562 17.480469-12.609374 21.730469-16.738281 5.578125-5.425781 7.234375-13.859375 4.113281-20.988281-6.195312-14.167969-8.757812-24.375-9.792968-29.761719 11.628906-7.808593 19.300781-21.078125 19.300781-36.105469 0-12.355468-5.191407-23.515624-13.496094-31.4375-.980469-54.945312-23.171875-106.445312-62.738281-145.339843-7.515625-7.386719-15.625-14.257813-24.152344-20.476563-.265625-7.027344-2.703125-13.917968-7.183594-19.734375-14.835937-19.265625-50.089844-51.582031-119.546875-51.582031-30.703125 0-57.933593 6.382812-80.933593 18.976562-19.441407 10.640626-31.734376 23.507813-38.617188 32.429688-4.523438 5.859375-6.96875 12.820312-7.207031 19.933594-8.515625 6.210937-16.617188 13.074218-24.121094 20.449218-5.125 5.039063-10.066406 10.414063-14.6875 15.976563-2.648437 3.1875-2.210937 7.914063.976563 10.5625s7.914062 2.210937 10.5625-.976563c4.300781-5.175781 8.898437-10.175781 13.667968-14.863281 5.355469-5.265625 11.039063-10.253906 16.972656-14.898437.257813.597656.535157 1.199218.8125 1.804687 2.832032 6.097657 6.484376 11.808594 10.527344 17.167969 6.035156 7.996094 17.445313 10.503906 26.222656 5.636719 12.667969-7.019531 40.660157-18.792969 85.828126-18.792969 29.109374 0 60.03125 4.5 85.835937 18.800781 8.78125 4.859375 20.167969 2.355469 26.207031-5.636719 4.429688-5.875 8.4375-12.207031 11.347656-18.980468 5.933594 4.644531 11.613282 9.632812 16.972657 14.898437 34.382812 33.800781 54.644531 77.835938 57.851562 125.140625-2.796875-1-5.722656-1.710937-8.75-2.117187-.132812-.019531-.265625-.035157-.394531-.050781-.847656-.105469-1.699219-.191407-2.558594-.246094-.097656-.003906-.1875-.019532-.28125-.027344-.035156-.398438-.082031-.789062-.117187-1.1875-.085938-.910156-.167969-1.824219-.265625-2.730469-.191406-1.78125-.398438-3.546875-.636719-5.277343-.777344-5.609376-3.464844-10.566407-7.328125-14.289063-4.480469-4.316406-10.550781-6.972656-17.144531-6.972656h-321.480469c-6.59375 0-12.664062 2.65625-17.144531 6.972656-3.863281 3.722656-6.550781 8.679687-7.328125 14.289063-.097656.722656-.980469 9.195312-1.015625 9.195312-.097657.003906-9.1875 1.4375-11.984375 2.4375zm198.210937-149.222656c-31.648437 0-65.078125 5.152344-93.09375 20.675781-2.3125 1.28125-5.398437.542969-6.976562-1.550781-4.214844-5.589844-8.074219-11.667969-10.496094-18.265625-2.300781-6.273438-1.195313-13.402344 2.886719-18.691407 13.136718-17.019531 44.59375-45.570312 107.679687-45.570312 63.035157 0 94.507813 28.652344 107.660157 45.730469 4 5.195312 5.179687 12.339843 2.917968 18.511719-2.0625 5.628906-5.597656 11.785156-10.507812 18.292968-1.5625 2.070313-4.679688 2.816406-6.96875 1.542969-13.9375-7.71875-44.5625-20.675781-93.101563-20.675781zm-201.1875 167.945312c4.046875-3.246094 8.953125-5.433594 14.265625-6.035156-.007812 1.636719.019532 3.273438.054688 4.90625.148437 6.386719.679687 12.734375 1.449218 19.074219 0 .011719 0 .027343.003907.039062 1.410156 10.921875 3.804687 21.675781 7.1875 32.167969-.160157.03125-.316407.0625-.476563.089844-17.183594 3.019531-33.410156-10.613282-33.410156-28.023438 0-8.746094 4.308594-16.90625 10.925781-22.21875zm30.835938-28.300781c.65625-4.742187 4.789062-8.320313 9.613281-8.320313h321.480469c4.824219 0 8.957031 3.578126 9.613281 8.320313 1.828125 13.234375 2.320312 27.027344.660156 40.3125-7.242187 69.070313-57.042968 125.921875-123.136718 144.773437-31.109376 8.839844-64.648438 8.875-95.757813 0-66.089844-18.851562-115.890625-75.703124-123.132813-144.773437-1.0625-10.152344.253907-37.363281.660157-40.3125zm144.414062 204.984375c9.09375 1.246094 18.21875 1.835938 27.394531 1.757812 8.441407-.078124 16.890626-.679687 25.25-1.855468-4.984374 8.582031-13.195312 17.214844-26.707031 22.617187-13.507812-5.402343-21.71875-14.035156-26.703125-22.617187.253906.035156.511719.0625.765625.097656zm-177.097656-78.363281c-1.125-1.089844-1.457031-2.789063-.828125-4.222657 5.625-12.863281 8.558594-22.902343 10.078125-29.605468.265625.0625.53125.105468.792969.164062 6.5625 1.433594 13.5 1.347656 20.015625-.304687 11.226562 26.871093 28.980469 50.921875 51.382812 69.863281-45.605469-5.765625-71.546875-26.277344-81.441406-35.894531zm118.183594 128.417969h26.453125v23.914062h-30.449219c.507813-8.152344 1.84375-16.152344 3.996094-23.914062zm143.253906 23.914062v-23.914062h26.453125c2.152344 7.761718 3.488281 15.761718 3.996094 23.914062zm-8.226563-78.910156c5.824219 4.914062 19.824219 18.277344 29.347657 39.996094h-28.621094c-4.140625 0-7.5 3.359374-7.5 7.5v31.414062h-86.800781v-31.414062c0-4.140626-3.359375-7.5-7.5-7.5h-28.621094c9.46875-21.582032 23.535156-35.042969 29.359375-39.992188.65625.179688 5.097656 1.308594 5.324219 1.359375 4.804687 12.863281 16.140625 31.929687 42.339844 41.179687 1.609374.566407 3.386718.566407 4.992187 0 26.199219-9.25 37.535156-28.316406 42.34375-41.175781.230469-.058593 3.796875-.945312 5.335937-1.367187zm145.945313-123.945313c-5.496094 2.691407-11.882813 3.527344-17.886719 2.355469 3.378906-10.496094 5.773438-21.246094 7.183594-32.167969.003906-.011719.003906-.027343.007812-.039062.933594-7.953125 1.535157-15.964844 1.5-23.980469 5.226563.59375 10.230469 2.664062 14.355469 5.929688 16.125 12.761718 13.390625 38.828124-5.160156 47.902343zm0 0"/></svg>