<svg height="512pt" viewBox="-30 0 512 512" width="512pt" xmlns="http://www.w3.org/2000/svg"><path d="m278.683594 512h-104.878906l-40.707032-40.085938c.964844-2.933593 2.042969-5.828124 3.230469-8.679687 13.507813-32.464844 36.535156-48.765625 36.535156-48.765625h106.761719s23.027344 16.300781 36.535156 48.765625c1.1875 2.851563 2.265625 5.746094 3.230469 8.679687zm0 0" fill="#e8e8e8"/><path d="m173.804688 471.914062v40.085938h-47.058594c0-13.578125 2.109375-27.1875 6.351562-40.085938zm0 0" fill="#f5cdb6"/><path d="m325.742188 512h-47.0625v-40.085938h40.707031c4.242187 12.898438 6.355469 26.507813 6.355469 40.085938zm0 0" fill="#f5cdb6"/><path d="m268.589844 408.082031s-2.992188 37.546875-42.34375 51.4375c-39.355469-13.890625-42.347656-51.4375-42.347656-51.4375zm0 0" fill="#e2b3a3"/><path d="m13.851562 240.476562c0-55.984374 22.152344-108.589843 62.375-148.132812 40.097657-39.414062 93.375-61.121094 150.019532-61.121094 56.640625 0 109.917968 21.707032 150.015625 61.121094 40.222656 39.542969 62.375 92.148438 62.375 148.132812zm0 0" fill="#ea8187"/><path d="m241.695312 31.769531c-5.117187-.363281-10.269531-.546875-15.449218-.546875-56.644532 0-109.921875 21.707032-150.019532 61.121094-40.222656 39.542969-62.375 92.148438-62.375 148.128906h30.90625c0-55.980468 22.152344-108.585937 62.375-148.128906 36.429688-35.808594 83.738282-56.996094 134.5625-60.574219zm0 0" fill="#d3737b"/><path d="m20.558594 302.121094s-.847656 13.617187-11.410156 37.777344c-1.941407 4.433593-.925782 9.609374 2.542968 12.984374 13.082032 12.714844 49.367188 40.746094 115.054688 40.746094l-56.480469-108.289062zm0 0" fill="#ea8187"/><path d="m51.464844 302.121094 23.425781-7.910156-4.625-8.871094-49.707031 16.777344s-.847656 13.621093-11.410156 37.777343c-1.941407 4.4375-.925782 9.613281 2.542968 12.988281 4.089844 3.972657 10.445313 9.445313 19.261719 15.089844 10.1875-24.636718 20.511719-65.851562 20.511719-65.851562zm0 0" fill="#d3737b"/><path d="m431.929688 302.121094s.847656 13.617187 11.410156 37.777344c1.941406 4.433593.929687 9.609374-2.542969 12.984374-13.082031 12.714844-49.367187 40.746094-115.054687 40.746094l56.484374-108.289062zm0 0" fill="#ea8187"/><path d="m452.488281 268.945312c0 20.460938-16.585937 37.046876-37.042969 37.046876-20.460937 0-37.046874-16.585938-37.046874-37.046876 0-20.457031 16.585937-37.042968 37.046874-37.042968 20.457032 0 37.042969 16.585937 37.042969 37.042968zm0 0" fill="#e2b3a3"/><path d="m409.390625 215.839844c-1.207031-8.742188-8.726563-15.234375-17.554687-15.234375h-331.183594c-8.828125 0-16.347656 6.492187-17.554688 15.234375-1.113281 8.054687-1.691406 16.28125-1.691406 24.636718 0 100.347657 82.753906 181.699219 184.839844 181.699219 102.082031 0 184.835937-81.351562 184.835937-181.699219 0-8.355468-.574219-16.582031-1.691406-24.636718zm0 0" fill="#f5cdb6"/><path d="m72.308594 240.472656c0-8.355468.578125-16.578125 1.695312-24.632812 1.207032-8.746094 8.726563-15.234375 17.554688-15.234375h-30.90625c-8.828125 0-16.347656 6.488281-17.554688 15.234375-.746094 5.378906-1.226562 10.835937-1.480468 16.351562-1.5-.183594-3.023438-.289062-4.574219-.289062-20.457031 0-37.042969 16.582031-37.042969 37.042968 0 20.460938 16.585938 37.042969 37.042969 37.042969 5.519531 0 10.75-1.214843 15.457031-3.378906 25.820312 69.75 93.863281 119.5625 173.746094 119.5625 5.203125 0 10.355468-.222656 15.449218-.636719-94.851562-7.71875-169.386718-85.828125-169.386718-181.0625zm0 0" fill="#e2b3a3"/><path d="m314.109375 275.875c-4.269531 0-7.726563-3.460938-7.726563-7.726562v-17.085938c0-4.265625 3.457032-7.722656 7.726563-7.722656 4.265625 0 7.726563 3.457031 7.726563 7.722656v17.085938c0 4.265624-3.460938 7.726562-7.726563 7.726562zm0 0" fill="#394048"/><path d="m325.742188 300.984375h-23.269532c-4.265625 0-7.726562-3.457031-7.726562-7.726563 0-4.265624 3.460937-7.726562 7.726562-7.726562h23.269532c4.269531 0 7.726562 3.460938 7.726562 7.726562 0 4.269532-3.460938 7.726563-7.726562 7.726563zm0 0" fill="#e98e8f"/><path d="m138.378906 275.875c-4.265625 0-7.726562-3.460938-7.726562-7.726562v-17.085938c0-4.265625 3.460937-7.722656 7.726562-7.722656 4.269532 0 7.726563 3.457031 7.726563 7.722656v17.085938c0 4.265624-3.457031 7.726562-7.726563 7.726562zm0 0" fill="#394048"/><path d="m150.015625 300.984375h-23.269531c-4.269532 0-7.726563-3.457031-7.726563-7.726563 0-4.265624 3.457031-7.726562 7.726563-7.726562h23.269531c4.265625 0 7.726563 3.460938 7.726563 7.726562 0 4.269532-3.460938 7.726563-7.726563 7.726563zm0 0" fill="#e98e8f"/><path d="m226.246094 300.019531c-8.355469 0-16.203125-3.496093-21.535156-9.59375-2.808594-3.210937-2.480469-8.09375.734374-10.902343 3.210938-2.808594 8.09375-2.480469 10.902344.730468 2.394532 2.742188 6 4.3125 9.898438 4.3125 3.894531 0 7.5-1.570312 9.894531-4.3125 2.808594-3.210937 7.6875-3.539062 10.902344-.734375 3.214843 2.808594 3.542969 7.691407.734375 10.902344-5.328125 6.101563-13.179688 9.597656-21.53125 9.597656zm0 0" fill="#394048"/><path d="m343.273438 50.125c-13.167969-17.101562-47.585938-50.125-117.027344-50.125-69.519532 0-103.921875 32.945312-117.046875 49.953125-5.855469 7.585937-7.414063 17.640625-4.113281 26.636719 2.277343 6.199218 6.117187 13.144531 11.894531 20.808594 4.003906 5.304687 11.289062 6.925781 17.101562 3.703124 13.949219-7.730468 44.0625-20.332031 92.164063-20.332031 48.097656 0 78.214844 12.601563 92.160156 20.332031 5.808594 3.21875 13.097656 1.605469 17.097656-3.695312 5.785156-7.675781 9.632813-14.628906 11.910156-20.839844 3.269532-8.925781 1.660157-18.910156-4.140624-26.441406zm0 0" fill="#e8e8e8"/><path d="m135.992188 76.589844c-3.300782-8.996094-1.742188-19.050782 4.113281-26.636719 12.109375-15.695313 42.359375-44.933594 101.574219-49.363281-4.949219-.371094-10.074219-.589844-15.433594-.589844-69.519532 0-103.921875 32.945312-117.046875 49.953125-5.855469 7.585937-7.414063 17.640625-4.113281 26.636719 2.277343 6.199218 6.117187 13.144531 11.894531 20.808594 4.003906 5.304687 11.289062 6.925781 17.101562 3.703124 3.207031-1.777343 7.273438-3.808593 12.207031-5.886718-4.886718-6.800782-8.242187-13.019532-10.296874-18.625zm0 0" fill="#d6d6d6"/><path d="m250.09375 28.269531h-12.539062v-12.539062h-22.621094v12.539062h-12.539063v22.621094h12.539063v12.539063h22.621094v-12.539063h12.539062zm0 0" fill="#e16668"/></svg>